<?xml version="1.0" encoding="iso-8859-1"?>
<!-- Generator: Adobe Illustrator 22.1.0, SVG Export Plug-In . SVG Version: 6.00 Build 0)  -->
<svg version="1.1" id="Layer_1" xmlns="http://www.w3.org/2000/svg" xmlns:xlink="http://www.w3.org/1999/xlink" x="0px" y="0px"
	 viewBox="0 0 48 48" style="enable-background:new 0 0 48 48;" xml:space="preserve">
<path d="M24,4C12.954,4,4,12.954,4,24c0,11.046,8.954,20,20,20c11.046,0,20-8.954,20-20C44,12.954,35.046,4,24,4z M31.561,29.439
	c0.586,0.586,0.586,1.535,0,2.121C31.268,31.854,30.884,32,30.5,32s-0.768-0.146-1.061-0.439L24,26.121l-5.439,5.439
	C18.268,31.854,17.884,32,17.5,32s-0.768-0.146-1.061-0.439c-0.586-0.586-0.586-1.535,0-2.121L21.879,24l-5.439-5.439
	c-0.586-0.586-0.586-1.535,0-2.121s1.535-0.586,2.121,0L24,21.879l5.439-5.439c0.586-0.586,1.535-0.586,2.121,0s0.586,1.535,0,2.121
	L26.121,24L31.561,29.439z"/>
</svg>